<svg xmlns="http://www.w3.org/2000/svg" viewBox="0 0 760 640" fill="none">
  <defs>
    <linearGradient id="front" x1="230" y1="150" x2="520" y2="560" gradientUnits="userSpaceOnUse">
      <stop stop-color="#ecff8b"/>
      <stop offset=".5" stop-color="#9fea1b"/>
      <stop offset="1" stop-color="#1f9d47"/>
    </linearGradient>
    <linearGradient id="side" x1="520" y1="190" x2="622" y2="548" gradientUnits="userSpaceOnUse">
      <stop stop-color="#4ade80"/>
      <stop offset="1" stop-color="#0f6b38"/>
    </linearGradient>
    <radialGradient id="glow" cx="0" cy="0" r="1" gradientTransform="translate(402 385) rotate(90) scale(285 350)">
      <stop stop-color="#bef264" stop-opacity=".55"/>
      <stop offset=".52" stop-color="#22c55e" stop-opacity=".22"/>
      <stop offset="1" stop-color="#22c55e" stop-opacity="0"/>
    </radialGradient>
  </defs>

  <ellipse cx="404" cy="392" rx="330" ry="238" fill="url(#glow)"/>
  <path d="M132 492c124 54 320 62 504 0" stroke="#bef264" stroke-width="10" stroke-linecap="round" opacity=".36"/>
  <path d="M600 164c60 17 103 56 126 113" stroke="#a3e635" stroke-width="13" stroke-linecap="round" opacity=".8"/>

  <g>
    <circle cx="205" cy="166" r="50" fill="#ef4444"/>
    <circle cx="260" cy="135" r="49" fill="#fb923c"/>
    <circle cx="328" cy="113" r="55" fill="#22c55e"/>
    <circle cx="399" cy="95" r="53" fill="#65a30d"/>
    <rect x="486" y="86" width="66" height="120" rx="18" fill="#e5eef7"/>
    <rect x="506" y="120" width="28" height="53" rx="7" fill="#60a5fa"/>
    <path d="M148 220c35-35 75-44 119-26" stroke="#fef08a" stroke-width="15" stroke-linecap="round"/>
    <path d="M111 228c35-25 73-32 113-13" stroke="#facc15" stroke-width="13" stroke-linecap="round"/>
  </g>

  <g>
    <path d="M218 176h322l-35 380H252L218 176Z" fill="#0f3b1d" opacity=".32"/>
    <path d="M206 168h340l-36 398H246L206 168Z" fill="url(#front)"/>
    <path d="M546 168l88 58-50 340h-74l36-398Z" fill="url(#side)"/>
    <path d="M206 168h340l-36 398H246L206 168Z" stroke="#d9f99d" stroke-width="7" opacity=".72"/>
    <path d="M247 168c11-74 58-123 130-123 77 0 122 50 133 123" stroke="#143314" stroke-width="22" stroke-linecap="round"/>
    <path d="M280 168c11-46 45-76 96-76 54 0 87 30 99 76" stroke="#ecfccb" stroke-width="10" stroke-linecap="round" opacity=".86"/>
    <path d="M255 224h250l-22 282H278l-23-282Z" fill="#ffffff" opacity=".14"/>
    <rect x="284" y="266" width="206" height="156" rx="28" fill="#052e16" fill-opacity=".82" stroke="#d9f99d" stroke-opacity=".56" stroke-width="2"/>
    <text x="316" y="316" fill="#ecfccb" font-size="26" font-family="Arial, Helvetica, sans-serif" font-weight="900">BiKuBe</text>
    <text x="316" y="374" fill="#ffffff" font-size="62" font-family="Arial, Helvetica, sans-serif" font-weight="900">30</text>
    <text x="410" y="374" fill="#d9f99d" font-size="26" font-family="Arial, Helvetica, sans-serif" font-weight="900">min</text>
    <text x="318" y="404" fill="#bbf7d0" font-size="19" font-family="Arial, Helvetica, sans-serif" font-weight="700">live tracking</text>
  </g>
</svg>
