<svg xmlns="http://www.w3.org/2000/svg" viewBox="0 0 32 64" width="32" height="64">
  <!-- Background -->
  <rect width="32" height="64" fill="transparent"/>
  
  <!-- Rack Frame -->
  <rect x="0" y="0" width="32" height="64" fill="#1e3a8a"/>
  <rect x="2" y="2" width="28" height="60" fill="#0f3460"/>
  
  <!-- Server Units -->
  <rect x="4" y="4" width="24" height="8" fill="#3b82f6"/>
  <rect x="4" y="14" width="24" height="8" fill="#3b82f6"/>
  <rect x="4" y="24" width="24" height="8" fill="#3b82f6"/>
  <rect x="4" y="34" width="24" height="8" fill="#3b82f6"/>
  <rect x="4" y="44" width="24" height="8" fill="#3b82f6"/>
  <rect x="4" y="54" width="24" height="8" fill="#3b82f6"/>
  
  <!-- LED Indicators -->
  <rect x="6" y="6" width="2" height="2" fill="#10b981"/>
  <rect x="6" y="16" width="2" height="2" fill="#10b981"/>
  <rect x="6" y="26" width="2" height="2" fill="#10b981"/>
  <rect x="6" y="36" width="2" height="2" fill="#10b981"/>
  <rect x="6" y="46" width="2" height="2" fill="#10b981"/>
  <rect x="6" y="56" width="2" height="2" fill="#10b981"/>
  
  <!-- Vents -->
  <rect x="10" y="6" width="12" height="2" fill="#1e3a8a"/>
  <rect x="10" y="16" width="12" height="2" fill="#1e3a8a"/>
  <rect x="10" y="26" width="12" height="2" fill="#1e3a8a"/>
  <rect x="10" y="36" width="12" height="2" fill="#1e3a8a"/>
  <rect x="10" y="46" width="12" height="2" fill="#1e3a8a"/>
  <rect x="10" y="56" width="12" height="2" fill="#1e3a8a"/>
  
  <!-- Cables -->
  <rect x="24" y="8" width="4" height="2" fill="#6b7280"/>
  <rect x="24" y="18" width="4" height="2" fill="#6b7280"/>
  <rect x="24" y="28" width="4" height="2" fill="#6b7280"/>
  <rect x="24" y="38" width="4" height="2" fill="#6b7280"/>
  <rect x="24" y="48" width="4" height="2" fill="#6b7280"/>
  <rect x="24" y="58" width="4" height="2" fill="#6b7280"/>
</svg>
