<svg xmlns="http://www.w3.org/2000/svg" viewBox="0 0 64 32" width="64" height="32">
  <!-- Background -->
  <rect width="64" height="32" fill="transparent"/>
  
  <!-- Board Frame -->
  <rect x="0" y="0" width="64" height="32" fill="#6b7280"/>
  <rect x="2" y="2" width="60" height="28" fill="#9ca3af"/>
  
  <!-- White Surface -->
  <rect x="4" y="4" width="56" height="24" fill="#ffffff"/>
  
  <!-- Grid Lines -->
  <rect x="4" y="8" width="56" height="1" fill="#e5e7eb"/>
  <rect x="4" y="12" width="56" height="1" fill="#e5e7eb"/>
  <rect x="4" y="16" width="56" height="1" fill="#e5e7eb"/>
  <rect x="4" y="20" width="56" height="1" fill="#e5e7eb"/>
  <rect x="4" y="24" width="56" height="1" fill="#e5e7eb"/>
  
  <!-- Marker Holder -->
  <rect x="58" y="8" width="4" height="16" fill="#4b5563"/>
  <rect x="59" y="10" width="2" height="12" fill="#ef4444"/>
  <rect x="59" y="12" width="2" height="8" fill="#3b82f6"/>
  <rect x="59" y="14" width="2" height="4" fill="#10b981"/>
  
  <!-- Sample Notes -->
  <rect x="8" y="6" width="20" height="8" fill="#fef3c7"/>
  <rect x="9" y="7" width="18" height="6" fill="#fcd34d"/>
  <rect x="10" y="8" width="16" height="4" fill="#f59e0b"/>
  
  <rect x="32" y="10" width="16" height="6" fill="#dbeafe"/>
  <rect x="33" y="11" width="14" height="4" fill="#93c5fd"/>
  <rect x="34" y="12" width="12" height="2" fill="#3b82f6"/>
</svg>
